<svg version="1.0" xmlns="http://www.w3.org/2000/svg"
 width="1024.000000pt" height="1024.000000pt" viewBox="0 0 1024.000000 1024.000000"
 preserveAspectRatio="xMidYMid meet">

<g transform="translate(0.000000,1024.000000) scale(0.100000,-0.100000)"
fill="#000000" stroke="none">
<path d="M4989 9157 c-2 -3 -47 -7 -99 -11 -448 -30 -923 -148 -1366 -341
-546 -237 -1098 -643 -1501 -1101 -265 -302 -435 -549 -586 -850 -204 -408
-315 -770 -394 -1284 -35 -226 -44 -679 -18 -935 48 -490 146 -868 325 -1255
226 -486 480 -843 881 -1238 398 -391 817 -675 1304 -885 418 -179 759 -268
1260 -329 144 -17 649 -17 815 0 632 66 1195 249 1710 557 391 234 690 484
1027 859 363 404 635 869 803 1375 91 274 161 614 195 956 19 187 22 559 6
720 -80 776 -342 1454 -806 2081 -303 409 -740 808 -1179 1077 -516 316 -1091
514 -1696 582 -129 15 -669 32 -681 22z m536 -236 c54 -6 57 -7 27 -13 -61
-14 -69 -96 -12 -125 19 -10 116 -13 386 -13 358 0 363 0 450 -26 139 -40 234
-76 228 -85 -3 -6 -343 -9 -807 -9 -831 1 -957 -4 -1214 -45 -640 -103 -1206
-349 -1718 -749 -157 -122 -228 -186 -410 -371 -198 -200 -229 -253 -175 -297
47 -38 61 -29 269 175 234 230 405 374 601 506 418 282 777 438 1256 546 351
79 462 85 1606 85 l969 0 52 -26 c29 -15 84 -45 122 -68 l70 -41 -50 -6 c-27
-4 -238 -8 -467 -8 l-417 -1 -20 -26 c-25 -32 -26 -52 -5 -82 l15 -22 522 -1
c287 0 556 -4 598 -7 72 -7 78 -9 144 -62 l69 -55 -224 -6 c-124 -4 -442 -7
-708 -8 -292 0 -491 -5 -502 -11 -37 -20 -31 -97 9 -117 9 -4 328 -10 709 -13
l693 -5 -83 -61 -83 -61 -1040 -7 c-1060 -7 -1240 -13 -1495 -51 -252 -38
-581 -126 -627 -168 -27 -24 -30 -72 -6 -99 23 -26 65 -23 200 16 220 63 485
111 768 137 119 11 2015 26 2005 16 -3 -3 -86 -69 -185 -146 l-180 -141 -9 27
c-14 45 -56 94 -93 109 -67 29 -136 32 -668 35 -414 3 -554 0 -600 -10 -213
-45 -987 -330 -1264 -464 -201 -97 -304 -183 -421 -354 -30 -43 -80 -116 -113
-163 -90 -131 -407 -609 -440 -665 -37 -63 -183 -372 -249 -529 -29 -68 -56
-152 -64 -197 -11 -63 -31 -113 -113 -276 -54 -109 -104 -216 -110 -238 -15
-54 -14 -133 2 -186 l14 -44 -78 -161 c-116 -240 -151 -273 -489 -459 -107
-59 -269 -148 -360 -198 -91 -50 -182 -101 -203 -115 -22 -13 -41 -22 -43 -20
-14 15 -144 315 -144 333 0 3 44 5 98 5 53 0 102 4 108 8 16 10 34 48 34 70 0
37 -27 47 -153 52 l-120 5 -12 35 c-7 20 -16 50 -20 68 l-7 32 95 0 c76 0 99
3 115 18 31 27 35 55 11 85 -20 26 -23 27 -135 27 -110 0 -114 1 -119 23 -18
78 -22 107 -17 112 3 3 207 5 454 5 435 0 449 1 468 20 12 12 20 33 20 55 0
64 7 63 -502 67 -251 2 -458 5 -461 8 -3 3 -8 33 -12 68 l-7 62 482 0 c542 0
539 0 540 72 0 58 3 58 -536 58 l-491 0 -7 66 c-4 37 -6 68 -4 69 2 1 296 5
655 8 417 4 659 10 671 16 22 12 32 32 32 66 0 51 15 50 -694 55 l-661 5 -3
68 -3 67 514 0 c283 0 603 3 712 7 180 6 199 8 216 27 25 26 24 61 -1 86 -20
20 -33 20 -720 20 l-701 0 3 73 3 72 335 2 c696 5 723 6 753 26 19 12 27 26
27 47 0 45 -31 70 -87 70 -27 0 -262 0 -524 0 -261 0 -478 2 -480 5 -6 5 10
147 17 154 2 2 348 7 770 10 l766 6 25 29 c29 34 25 70 -10 100 -21 18 -49 18
-774 11 l-752 -7 15 63 c27 119 151 473 217 619 197 441 433 777 806 1150 334
334 698 595 1106 795 430 210 926 345 1430 388 73 6 559 5 620 -2z m2500
-1192 c108 -111 242 -268 303 -356 l22 -31 -183 -139 c-327 -249 -371 -281
-456 -332 -46 -28 -88 -51 -93 -51 -4 0 -8 15 -8 34 0 90 -45 222 -91 264 -27
26 -77 29 -86 6 -3 -8 2 -52 11 -97 19 -97 20 -183 3 -216 -9 -18 -39 -33
-121 -62 -288 -101 -527 -251 -784 -493 -117 -110 -180 -154 -284 -195 -186
-73 -524 -120 -680 -95 -34 6 -39 11 -53 54 -24 73 -81 115 -119 87 -17 -13
-17 -16 0 -94 13 -60 15 -93 8 -125 -8 -40 -16 -47 -94 -100 -76 -51 -351
-198 -370 -198 -4 0 -25 30 -46 67 -56 96 -126 130 -160 78 -12 -18 -11 -26 6
-55 45 -77 64 -128 68 -181 l4 -56 -64 -30 c-174 -82 -310 -206 -377 -345 -44
-90 -70 -187 -71 -258 -1 -54 -11 -75 -68 -134 -45 -47 -122 -90 -182 -101
-34 -6 -34 -6 15 24 109 65 188 172 235 318 34 107 38 181 12 233 -13 26 -24
36 -47 38 -40 5 -55 -19 -55 -86 0 -191 -164 -422 -282 -397 -72 16 -98 62
-78 137 12 43 137 314 212 460 42 82 317 479 390 562 61 71 143 120 488 294
168 84 321 166 340 181 19 15 69 72 111 127 114 149 228 233 429 313 102 41
106 42 155 29 30 -8 111 -13 200 -13 127 0 162 4 229 23 112 32 224 93 301
164 l66 61 68 -6 c37 -3 94 -15 127 -27 85 -31 118 -35 137 -15 48 48 -20 122
-148 160 -22 7 -40 17 -40 23 0 6 97 87 215 179 232 182 370 291 568 449 l127
102 35 -28 c19 -15 89 -84 155 -151z m-1447 -379 c46 -5 87 -12 92 -15 5 -3
11 -18 15 -34 15 -71 -81 -198 -194 -256 -78 -39 -192 -65 -286 -65 -162 0
-239 28 -346 126 -38 35 -75 64 -82 64 -45 0 -48 -71 -8 -157 31 -64 30 -73
-2 -73 -30 0 -185 -77 -347 -172 -80 -47 -164 -95 -186 -106 l-42 -21 -4 50
c-7 65 -47 111 -93 107 l-30 -3 4 -96 c4 -113 -12 -154 -81 -213 -54 -47 -502
-267 -514 -253 -1 1 -7 26 -13 56 -20 94 -102 211 -147 211 -56 0 -68 -47 -30
-113 65 -112 73 -270 21 -400 -75 -185 -269 -401 -476 -529 l-66 -41 -6 -66
c-20 -217 -125 -390 -280 -455 -39 -17 -73 -26 -84 -22 -14 6 -9 11 27 27 109
49 191 153 241 307 26 84 30 109 27 182 -4 99 -27 158 -71 178 -25 12 -31 12
-47 -3 -17 -15 -18 -27 -13 -99 10 -149 -46 -307 -143 -395 -81 -75 -166 -93
-222 -46 -77 65 -71 123 43 380 141 321 168 371 281 535 59 85 192 283 297
439 104 157 210 307 236 334 96 103 220 169 601 320 261 103 658 249 788 289
148 45 164 46 622 42 239 -3 472 -9 518 -14z m1910 -187 c90 -127 250 -428
337 -633 l36 -85 -28 -23 c-16 -12 -66 -48 -113 -79 -156 -104 -161 -113 -108
-221 26 -52 34 -82 36 -138 l4 -72 -63 -47 c-75 -55 -254 -175 -261 -175 -3 0
6 37 19 81 38 131 28 196 -34 213 -39 12 -68 -29 -98 -134 -50 -183 -141 -327
-301 -480 -141 -135 -263 -214 -440 -284 -168 -66 -246 -80 -454 -80 -173 0
-191 2 -273 27 -48 15 -100 27 -116 27 -35 0 -331 -61 -816 -167 l-131 -29 4
86 c7 133 -30 263 -92 325 -34 34 -80 34 -102 0 -16 -24 -15 -28 17 -98 31
-68 33 -78 34 -187 0 -177 25 -157 -325 -272 -432 -143 -491 -151 -601 -85
-121 73 -148 256 -48 328 35 25 186 78 245 86 38 5 49 2 69 -17 24 -23 58
-110 70 -182 7 -43 7 -43 -160 -100 -49 -17 -96 -36 -102 -41 -19 -14 -16 -34
8 -58 26 -26 48 -22 204 29 76 25 119 44 139 64 28 28 28 31 23 106 -16 237
-122 329 -320 277 -32 -8 -76 -24 -98 -36 -62 -31 -44 -3 36 58 106 81 379
208 607 283 68 22 213 66 323 96 705 196 771 220 865 322 30 32 87 103 125
157 140 199 312 341 560 464 233 116 384 159 592 168 155 6 261 -5 350 -39 58
-21 86 -15 98 23 19 58 -33 101 -173 146 -42 13 -78 25 -79 27 -5 5 497 395
509 396 4 0 15 -12 26 -27z m440 -921 c7 -20 19 -56 27 -78 l13 -42 -72 -45
c-105 -67 -101 -67 -114 0 -6 32 -14 68 -17 79 -6 18 5 31 66 77 41 31 76 54
78 51 3 -2 11 -21 19 -42z m111 -384 c1 -16 -9 -18 -84 -18 -47 0 -85 2 -85 5
0 2 33 27 73 55 l72 51 12 -38 c6 -21 12 -46 12 -55z m-3422 -60 c29 -7 53
-15 53 -18 0 -7 -302 -142 -307 -136 -2 2 21 18 52 36 64 36 125 93 125 115 0
18 10 18 77 3z m3453 -124 c6 -14 10 -41 10 -60 l0 -34 -297 0 c-185 0 -293 4
-287 9 5 6 41 32 79 60 l70 50 208 0 207 1 10 -26z m44 -276 c3 -17 6 -48 6
-69 l0 -39 -517 0 c-284 0 -514 2 -512 3 2 2 39 34 81 70 l77 67 318 2 c175 2
368 2 429 0 l112 -3 6 -31z m11 -318 l0 -65 -513 -5 c-494 -5 -514 -6 -528
-24 -20 -29 -17 -54 11 -81 l24 -25 500 0 c275 0 502 -4 505 -8 3 -5 2 -34 -1
-65 l-6 -57 -702 0 c-695 0 -703 0 -729 -21 -19 -15 -26 -30 -26 -54 0 -68
-35 -65 748 -65 667 0 704 -1 697 -17 -3 -10 -9 -39 -12 -64 l-5 -46 -232 -7
-231 -6 -22 -26 c-28 -31 -29 -58 -3 -84 19 -19 33 -20 240 -20 249 0 232 7
209 -86 l-11 -44 -729 0 c-716 0 -729 0 -749 -20 -29 -29 -26 -74 6 -99 26
-21 34 -21 734 -21 l708 0 -17 -67 -17 -68 -544 -3 c-488 -2 -545 -4 -562 -19
-25 -22 -23 -75 3 -99 20 -18 46 -19 540 -22 285 -1 519 -6 519 -10 0 -4 -10
-35 -22 -69 l-23 -63 -753 -2 -754 -3 -19 -24 c-24 -29 -24 -62 -1 -90 l17
-22 722 -2 c397 -1 725 -5 729 -9 8 -9 -90 -210 -185 -376 -169 -296 -384
-566 -702 -881 -889 -881 -2180 -1276 -3424 -1046 -298 55 -641 159 -887 269
l-58 26 78 72 c138 130 408 367 463 410 72 54 216 122 314 147 44 12 224 36
405 56 179 19 476 50 660 70 184 19 379 42 434 50 187 29 317 88 429 194 77
73 110 119 200 282 115 209 441 702 548 830 24 29 46 87 104 280 113 378 171
573 210 714 20 72 48 167 61 211 l26 82 66 28 c95 39 195 96 290 165 l82 58
133 4 c72 1 339 3 592 2 l460 0 0 -65z m-5926 -279 c52 -17 86 -22 126 -19 30
3 55 3 55 2 0 -21 -65 -173 -88 -207 -114 -165 -307 -203 -377 -74 -28 52 -16
105 60 260 l66 137 44 -38 c28 -24 68 -46 114 -61z m3529 23 c10 -3 8 -13 -6
-41 -19 -38 -65 -173 -76 -226 l-7 -28 -45 35 c-25 19 -65 43 -90 52 -38 14
-43 20 -38 38 15 47 56 117 91 154 l38 40 60 -10 c33 -5 66 -11 73 -14z
m-3055 -62 c7 -74 35 -141 76 -185 28 -31 91 -67 116 -67 19 0 19 -9 -5 -132
-57 -293 -178 -524 -448 -848 -177 -213 -264 -295 -682 -643 -146 -122 -318
-265 -382 -318 l-117 -98 -36 40 c-20 22 -35 44 -33 49 2 4 80 70 173 145 228
184 245 201 245 242 0 39 -30 73 -64 73 -13 0 -46 -17 -73 -39 -26 -21 -124
-99 -217 -174 l-169 -135 -55 65 c-30 36 -74 92 -98 126 -49 70 -200 320 -233
385 l-22 42 43 26 c24 14 192 108 373 208 182 100 373 209 425 241 162 101
250 206 335 405 21 47 41 89 46 94 5 5 31 2 65 -9 84 -26 198 -17 288 24 133
60 248 217 294 401 19 72 21 76 66 101 26 14 52 31 58 37 21 21 25 13 31 -56z
m3600 26 c-3 -18 -53 -193 -111 -388 -58 -195 -123 -418 -144 -495 -22 -77
-54 -166 -71 -197 -18 -32 -97 -142 -177 -245 -290 -374 -468 -566 -614 -661
-120 -79 -268 -118 -562 -151 -72 -7 -94 -22 -94 -64 0 -58 43 -80 114 -58 17
6 99 14 181 20 238 16 365 66 508 200 88 83 88 68 2 -46 -104 -140 -250 -207
-505 -233 -63 -6 -239 -27 -390 -45 -626 -77 -753 -89 -990 -89 l-225 -1 -113
38 c-63 20 -115 37 -118 37 -2 0 -10 -13 -19 -29 -32 -63 25 -119 164 -160
l54 -17 -64 -38 c-35 -22 -87 -56 -116 -77 -29 -22 -57 -39 -63 -39 -7 0 -53
34 -103 75 -100 82 -137 94 -172 55 -36 -39 -17 -101 46 -150 18 -14 48 -40
68 -58 l36 -32 -75 -70 c-41 -38 -77 -69 -80 -69 -3 0 -50 36 -105 79 -113 90
-150 102 -181 55 -31 -47 -22 -73 47 -140 35 -34 75 -69 89 -79 l25 -17 -65
-59 c-36 -33 -68 -60 -72 -60 -12 0 -303 176 -418 253 -109 73 -196 139 -315
241 -118 100 -285 251 -285 256 1 3 40 36 88 75 48 38 157 126 242 196 85 70
254 209 375 308 l220 180 6 -62 c10 -89 26 -142 55 -177 28 -33 67 -40 98 -17
21 16 22 30 6 140 -11 71 -11 102 -1 155 78 421 550 766 1146 836 28 3 158 13
290 21 253 17 391 39 501 80 36 14 222 104 412 200 268 136 366 180 430 196
46 12 87 18 90 14 4 -4 2 -10 -5 -12 -6 -2 -58 -28 -115 -56 -86 -44 -106 -59
-125 -92 -54 -96 -8 -251 90 -301 65 -34 136 -13 297 90 36 23 71 46 79 51 36
21 -30 -62 -84 -108 -149 -125 -536 -338 -836 -460 -222 -90 -748 -337 -786
-369 -22 -18 -15 -56 13 -74 24 -16 30 -16 97 0 40 9 108 32 152 52 383 168
448 189 590 189 113 0 179 -22 231 -76 30 -31 73 -39 92 -16 6 7 11 49 10 93
0 144 25 175 268 324 164 100 231 148 304 217 l35 33 49 -25 c58 -29 92 -32
118 -8 37 34 14 89 -52 123 l-38 19 25 68 c22 61 25 79 20 168 -6 111 0 130
55 181 53 51 94 67 147 59 89 -13 96 -12 99 13 7 49 -59 92 -143 92 -30 0 -55
4 -55 10 0 21 42 119 56 131 11 9 51 13 137 11 67 -1 142 3 167 7 72 14 70 14
63 -21z m-913 20 c0 -2 -13 -39 -29 -83 l-28 -79 -85 -12 c-103 -15 -180 -45
-445 -175 -526 -257 -539 -261 -973 -294 -266 -20 -352 -31 -480 -59 -106 -24
-288 -87 -325 -112 -33 -23 -33 -16 -2 49 17 34 30 68 28 75 -1 6 5 12 14 12
9 0 13 5 10 11 -9 14 3 61 14 54 5 -3 7 4 4 15 -4 16 -2 19 12 13 15 -5 17 -2
13 15 -4 16 -2 19 10 15 10 -4 13 -2 8 5 -5 8 2 12 21 13 25 0 26 1 8 9 -11 5
-14 9 -7 9 6 1 14 1 17 1 2 0 17 12 31 25 35 33 82 56 90 44 7 -12 24 -11 24
2 0 5 -4 7 -10 4 -5 -3 -10 1 -10 10 0 8 8 19 18 22 9 4 25 16 35 28 18 20 18
20 12 -5 -5 -19 -4 -22 4 -10 6 8 11 22 11 31 0 17 27 34 45 30 6 -2 7 1 3 5
-10 9 12 35 23 28 5 -3 9 0 9 7 0 7 12 1 28 -14 41 -40 135 -78 220 -90 118
-17 206 1 511 103 409 137 677 209 1026 275 120 23 145 27 145 23z m-2040
-167 c0 -26 -148 -134 -230 -168 -93 -38 -90 -25 6 25 95 50 204 126 204 142
0 6 5 10 10 10 6 0 10 -4 10 -9z m2178 -228 c32 -20 62 -72 62 -108 0 -27 -7
-34 -68 -65 -37 -20 -106 -57 -154 -84 -70 -38 -91 -45 -106 -37 -31 17 -53
60 -59 115 -5 50 -4 54 24 74 17 12 77 46 134 76 106 56 121 59 167 29z"/>
<path d="M4935 8219 c-450 -42 -848 -150 -1197 -325 -153 -77 -187 -119 -138
-172 30 -31 65 -28 161 17 234 110 518 210 719 255 326 72 484 88 950 92 370
4 396 6 414 23 25 25 24 68 -3 94 -21 22 -26 22 -419 23 -218 1 -437 -3 -487
-7z"/>
<path d="M3090 7493 c-23 -9 -184 -141 -277 -228 -100 -92 -288 -304 -298
-334 -14 -46 43 -91 99 -77 13 3 71 59 132 127 59 66 124 135 144 152 20 18
94 83 163 145 115 103 127 117 127 147 0 49 -47 84 -90 68z"/>
<path d="M3334 7166 c-149 -120 -284 -255 -284 -284 0 -24 28 -58 55 -66 31
-9 70 18 227 152 248 213 232 196 224 234 -7 37 -40 67 -72 68 -11 0 -77 -46
-150 -104z"/>
<path d="M2063 7008 c-46 -51 -83 -113 -83 -138 0 -60 70 -80 115 -32 46 48
85 110 85 135 0 54 -78 77 -117 35z"/>
<path d="M2293 6628 c-34 -36 -103 -165 -103 -191 0 -32 30 -57 67 -57 39 0
65 29 117 132 34 67 37 78 26 99 -7 13 -18 27 -24 31 -22 15 -63 8 -83 -14z"/>
<path d="M2811 6546 c-35 -37 -121 -188 -121 -212 0 -47 73 -81 111 -51 21 16
108 167 119 207 8 27 6 35 -15 56 -31 31 -65 31 -94 0z"/>
<path d="M1686 6526 c-65 -64 16 -153 92 -100 27 19 30 74 5 97 -34 30 -70 31
-97 3z"/>
<path d="M1609 6162 c-27 -23 -30 -75 -5 -100 14 -15 39 -17 183 -15 159 1
168 2 185 23 25 30 23 56 -7 85 -23 24 -28 25 -178 25 -136 0 -158 -2 -178
-18z"/>
<path d="M1917 4182 c-22 -25 -21 -75 1 -95 15 -14 42 -17 155 -17 135 0 136
0 156 26 12 15 21 32 21 39 0 7 -9 24 -21 39 -20 26 -21 26 -158 26 -121 0
-140 -2 -154 -18z"/>
<path d="M8010 4450 c-25 -25 -26 -72 -2 -93 14 -13 39 -17 105 -17 99 0 127
16 127 69 0 47 -30 61 -127 61 -70 0 -86 -3 -103 -20z"/>
<path d="M7670 3330 c-26 -26 -26 -72 1 -96 20 -18 44 -19 403 -22 377 -3 382
-3 409 18 34 27 36 68 4 98 -23 22 -27 22 -410 22 -374 0 -388 -1 -407 -20z"/>
<path d="M7389 3059 c-15 -6 -32 -23 -39 -40 -11 -27 -10 -34 7 -57 l20 -27
448 -3 c502 -3 495 -3 495 63 0 22 -8 43 -20 55 -20 20 -32 20 -453 19 -244 0
-444 -5 -458 -10z"/>
<path d="M7775 2765 c-14 -13 -25 -33 -25 -45 0 -11 11 -32 25 -45 23 -24 28
-25 178 -25 141 0 157 2 181 21 33 26 34 62 1 94 -24 24 -28 25 -180 25 -152
0 -156 -1 -180 -25z"/>
<path d="M7076 2730 c-50 -54 -57 -79 -26 -110 35 -35 77 -26 127 25 65 69 55
135 -21 135 -27 0 -42 -10 -80 -50z"/>
<path d="M7525 2467 c-12 -7 -56 -41 -98 -76 -97 -81 -110 -119 -53 -156 35
-23 71 -9 158 62 106 86 118 114 73 158 -26 27 -49 31 -80 12z"/>
<path d="M6580 2319 c-161 -97 -334 -175 -515 -229 -72 -22 -296 -70 -328 -70
-37 0 -91 -33 -97 -60 -9 -34 8 -67 39 -78 45 -16 256 17 444 69 206 56 526
215 597 295 34 40 37 63 13 92 -34 40 -61 36 -153 -19z"/>
<path d="M6971 2023 c-62 -41 -170 -106 -240 -143 -162 -88 -171 -95 -171
-128 0 -43 26 -72 63 -72 80 0 430 196 530 296 32 32 35 76 7 104 -34 34 -68
24 -189 -57z"/>
<path d="M5130 1953 c-61 -3 -78 -7 -92 -24 -24 -28 -23 -64 2 -89 17 -17 33
-20 125 -20 92 0 108 3 125 20 44 44 5 123 -59 118 -14 -1 -60 -3 -101 -5z"/>
<path d="M6050 1599 c-150 -38 -150 -38 -167 -75 -16 -33 -16 -35 4 -62 13
-18 31 -28 52 -30 50 -5 223 37 249 61 31 28 31 90 0 111 -28 20 -44 19 -138
-5z"/>
<path d="M4277 1593 c-8 -10 -18 -30 -22 -45 -14 -57 42 -83 257 -119 71 -12
79 -11 98 6 23 21 28 86 7 103 -16 14 -257 72 -296 72 -15 0 -35 -8 -44 -17z"/>
<path d="M5260 1473 c-60 -9 -68 -14 -79 -45 -10 -28 -9 -36 7 -58 19 -25 21
-25 165 -25 129 0 147 2 166 19 26 24 28 77 3 99 -15 14 -39 17 -128 16 -60
-1 -120 -3 -134 -6z"/>
<path d="M5690 4035 c-17 -21 -6 -67 38 -155 43 -86 59 -99 98 -82 26 12 26
15 21 71 -2 31 -14 76 -26 98 -36 71 -101 105 -131 68z"/>
<path d="M5142 2591 c-47 -4 -67 -11 -78 -25 -20 -28 -17 -63 6 -86 17 -17 29
-20 73 -15 96 11 116 16 132 31 21 21 19 67 -3 87 -19 18 -25 18 -130 8z"/>
<path d="M4440 4480 c0 -5 5 -10 11 -10 5 0 7 5 4 10 -3 6 -8 10 -11 10 -2 0
-4 -4 -4 -10z"/>
<path d="M4240 4346 c0 -2 7 -7 16 -10 8 -3 12 -2 9 4 -6 10 -25 14 -25 6z"/>
<path d="M4233 4283 c0 -7 4 -13 8 -13 4 0 9 6 12 13 3 8 0 14 -7 14 -7 0 -13
-6 -13 -14z"/>
<path d="M4136 4241 c-3 -4 1 -17 10 -27 14 -18 15 -18 5 3 -8 16 -8 23 2 26
9 4 9 6 0 6 -6 1 -14 -3 -17 -8z"/>
<path d="M4178 4223 c7 -3 16 -2 19 1 4 3 -2 6 -13 5 -11 0 -14 -3 -6 -6z"/>
<path d="M4097 4177 c-3 -8 1 -14 8 -14 7 0 11 6 8 14 -3 7 -6 13 -8 13 -2 0
-5 -6 -8 -13z"/>
<path d="M4066 4163 c-6 -14 -5 -15 5 -6 7 7 10 15 7 18 -3 3 -9 -2 -12 -12z"/>
<path d="M4080 4120 c0 -5 5 -10 11 -10 5 0 7 5 4 10 -3 6 -8 10 -11 10 -2 0
-4 -4 -4 -10z"/>
<path d="M4115 4110 c3 -5 8 -10 11 -10 2 0 4 5 4 10 0 6 -5 10 -11 10 -5 0
-7 -4 -4 -10z"/>
<path d="M4040 4090 c0 -5 5 -10 10 -10 6 0 10 5 10 10 0 6 -4 10 -10 10 -5 0
-10 -4 -10 -10z"/>
<path d="M4085 4080 c3 -5 8 -10 11 -10 2 0 4 5 4 10 0 6 -5 10 -11 10 -5 0
-7 -4 -4 -10z"/>
<path d="M4020 4066 c0 -2 7 -7 16 -10 8 -3 12 -2 9 4 -6 10 -25 14 -25 6z"/>
<path d="M4000 4019 c0 -5 5 -7 10 -4 6 3 10 8 10 11 0 2 -4 4 -10 4 -5 0 -10
-5 -10 -11z"/>
</g>
</svg>